<svg xmlns="http://www.w3.org/2000/svg" xmlns:xlink="http://www.w3.org/1999/xlink" viewBox="0,0,256,256" width="100px" height="100px"><g fill="#ffffff" fill-rule="nonzero" stroke="none" stroke-width="1" stroke-linecap="butt" stroke-linejoin="miter" stroke-miterlimit="10" stroke-dasharray="" stroke-dashoffset="0" font-family="none" font-weight="none" font-size="none" text-anchor="none" style="mix-blend-mode: normal"><g transform="scale(2.56,2.56)"><path d="M50,14c-4.757,0 -9.38028,0.9148 -13.73828,2.7168c-0.511,0.211 -0.75202,0.79369 -0.54102,1.30469l2.29102,5.54492c0.159,0.386 0.53083,0.61914 0.92383,0.61914c0.127,0 0.25586,-0.02613 0.38086,-0.07812c3.388,-1.398 6.9828,-2.10742 10.7168,-2.10742c0.267,0 0.52199,-0.10592 0.70898,-0.29492c0.187,-0.189 0.29201,-0.44394 0.29102,-0.71094l-0.0332,-6c-0.003,-0.55 -0.45,-0.99414 -1,-0.99414zM49.00586,16.01367l0.02148,4.00195c-3.286,0.104 -6.48892,0.73195 -9.54492,1.87695l-1.52734,-3.69727c3.534,-1.341 7.24178,-2.07264 11.05078,-2.18164zM63.42383,16.66602c-0.13025,0 -0.26031,0.02422 -0.38281,0.07422c-0.245,0.102 -0.43997,0.29602 -0.54297,0.54102l-2.30273,5.54102c-0.212,0.51 0.03102,1.09659 0.54102,1.30859c3.404,1.414 6.45722,3.46008 9.07422,6.08008c0.186,0.188 0.44103,0.29297 0.70703,0.29297c0.264,0 0.51803,-0.10497 0.70703,-0.29297l4.24414,-4.24023c0.188,-0.187 0.29297,-0.44103 0.29297,-0.70703c0,-0.265 -0.10497,-0.51903 -0.29297,-0.70703c-3.363,-3.366 -7.28711,-5.99545 -11.66211,-7.81445c-0.1225,-0.051 -0.25256,-0.07617 -0.38281,-0.07617zM63.95508,18.98633c3.462,1.558 6.60986,3.66911 9.38086,6.28711l-2.83008,2.82812c-2.396,-2.246 -5.10694,-4.06397 -8.08594,-5.41797zM50,24c-1.539,0 -3.08289,0.1363 -4.58789,0.4043c-0.271,0.048 -0.4533,0.30808 -0.4043,0.58008c0.043,0.242 0.25323,0.41211 0.49023,0.41211c0.029,0 0.05984,-0.00281 0.08984,-0.00781c1.447,-0.257 2.93211,-0.38867 4.41211,-0.38867l0.49023,0.00586h0.00977c0.272,0 0.495,-0.21919 0.5,-0.49219c0.005,-0.277 -0.21423,-0.50281 -0.49023,-0.50781zM25.28906,24.21484c-0.25575,-0.00025 -0.51153,0.09797 -0.70703,0.29297c-3.368,3.358 -6.00022,7.27834 -7.82422,11.65234c-0.103,0.245 -0.10295,0.52063 -0.00195,0.76563c0.101,0.245 0.29406,0.44097 0.53906,0.54297l5.53711,2.30859c0.123,0.052 0.25572,0.07617 0.38672,0.07617c0.129,0 0.25791,-0.02617 0.37891,-0.07617c0.245,-0.101 0.44097,-0.29406 0.54297,-0.53906c1.418,-3.401 3.46684,-6.45141 6.08984,-9.06641c0.188,-0.187 0.29297,-0.44103 0.29297,-0.70703c0,-0.265 -0.10302,-0.51903 -0.29102,-0.70703l-4.23633,-4.24805c-0.1955,-0.196 -0.45128,-0.29467 -0.70703,-0.29492zM43.56836,24.83789c-0.064,-0.009 -0.12981,-0.00508 -0.19531,0.01367c-1.212,0.319 -2.41236,0.72966 -3.56836,1.22266c-0.254,0.108 -0.37362,0.40225 -0.26563,0.65625c0.081,0.19 0.26694,0.30469 0.46094,0.30469c0.065,0 0.13131,-0.01301 0.19531,-0.04102c1.112,-0.474 2.26664,-0.86878 3.43164,-1.17578c0.267,-0.07 0.42547,-0.34433 0.35547,-0.61133c-0.0525,-0.20025 -0.22206,-0.34214 -0.41406,-0.36914zM58.98047,25.63477c-0.19552,0.00778 -0.37452,0.12802 -0.44727,0.32227c-0.098,0.259 0.03302,0.54653 0.29102,0.64453c3.523,1.329 6.75938,3.48919 9.35938,6.24219c0.097,0.104 0.23028,0.15625 0.36328,0.15625c0.123,0 0.24775,-0.04472 0.34375,-0.13672c0.202,-0.189 0.20853,-0.50703 0.01953,-0.70703c-2.703,-2.864 -6.06842,-5.10723 -9.73242,-6.49023c-0.0655,-0.02375 -0.13209,-0.03384 -0.19727,-0.03125zM25.29688,26.63867l2.82422,2.83398c-2.249,2.393 -4.07073,5.10408 -5.42773,8.08008l-3.69141,-1.53906c1.562,-3.461 3.67592,-6.608 6.29492,-9.375zM31.9375,31.5c-0.128,0 -0.25602,0.04898 -0.35352,0.14648c-0.168,0.168 -0.33114,0.33677 -0.49414,0.50977c-0.19,0.201 -0.18147,0.51803 0.01953,0.70703c0.097,0.091 0.22075,0.13672 0.34375,0.13672c0.133,0 0.26528,-0.0532 0.36328,-0.1582c0.156,-0.165 0.31461,-0.32828 0.47461,-0.48828c0.195,-0.195 0.195,-0.51203 0,-0.70703c-0.0975,-0.0975 -0.22552,-0.14648 -0.35352,-0.14648zM29.68359,34.00391c-0.127,0.01675 -0.24658,0.08141 -0.33008,0.19141c-1.436,1.874 -2.61124,3.93214 -3.49023,6.11914c-0.104,0.255 0.02134,0.54739 0.27734,0.65039c0.062,0.024 0.1255,0.03516 0.1875,0.03516c0.198,0 0.38684,-0.1175 0.46484,-0.3125c0.844,-2.102 1.97252,-4.08181 3.35352,-5.88281c0.168,-0.22 0.1272,-0.53317 -0.0918,-0.70117c-0.1095,-0.085 -0.24409,-0.11636 -0.37109,-0.09961zM82.35352,35.61133c-0.12986,-0.00108 -0.26167,0.02392 -0.38867,0.07617l-5.54297,2.29688c-0.245,0.102 -0.43902,0.29602 -0.54102,0.54102c-0.102,0.245 -0.102,0.52063 0,0.76563c1.407,3.395 2.11914,6.99698 2.11914,10.70898v0.13281c0,0.553 0.447,1 1,1h6c0.553,0 1,-0.447 1,-1v-0.13281c0,-4.77 -0.91752,-9.40248 -2.72852,-13.77148c-0.15825,-0.3825 -0.52839,-0.61395 -0.91797,-0.61719zM81.79297,37.92383c1.364,3.582 2.09931,7.34499 2.19531,11.20898h-4c-0.094,-3.334 -0.72858,-6.58273 -1.89258,-9.67773zM73.23047,39c-0.06481,0.00164 -0.12916,0.01667 -0.19141,0.04492c-0.252,0.113 -0.364,0.40816 -0.25,0.66016c1.122,2.483 1.8268,5.12175 2.0918,7.84375c0.025,0.258 0.24405,0.45117 0.49805,0.45117c0.017,0 0.03183,-0.00095 0.04883,-0.00195c0.274,-0.027 0.47522,-0.27188 0.44922,-0.54687c-0.277,-2.83 -1.00873,-5.57425 -2.17773,-8.15625c-0.08475,-0.189 -0.27431,-0.29984 -0.46875,-0.29492zM14.99805,48.93359c-0.267,0 -0.52098,0.10692 -0.70899,0.29492c-0.188,0.19 -0.29301,0.44489 -0.29101,0.71289l0.00195,0.12695c0.009,4.718 0.91717,9.30377 2.70117,13.63477c0.102,0.245 0.29702,0.44097 0.54102,0.54297c0.123,0.052 0.25377,0.07617 0.38477,0.07617c0.13,0 0.25886,-0.02422 0.38086,-0.07422l5.54688,-2.28516c0.511,-0.211 0.75492,-0.79564 0.54492,-1.30664c-1.393,-3.38 -2.10056,-6.98584 -2.10156,-10.71484c0,-0.552 -0.44605,-0.999 -0.99805,-1l-6,-0.00781zM24.51367,49c-0.309,0.012 -0.50281,0.21423 -0.50781,0.49023l-0.00586,0.50977c0,3.537 0.69722,6.96731 2.07422,10.19531c0.081,0.19 0.26694,0.30469 0.46094,0.30469c0.066,0 0.13131,-0.01206 0.19531,-0.03906c0.254,-0.108 0.37167,-0.40225 0.26367,-0.65625c-1.324,-3.104 -1.99414,-6.40369 -1.99414,-9.80469l0.00586,-0.49023c0.005,-0.277 -0.21619,-0.50477 -0.49219,-0.50977zM75.48633,49c-0.276,0.005 -0.49719,0.23277 -0.49219,0.50977l0.00586,0.49023l-0.00586,0.49023c-0.005,0.277 0.21619,0.50477 0.49219,0.50977h0.00781c0.273,0 0.495,-0.21723 0.5,-0.49023l0.00586,-0.50977l-0.00586,-0.50977c-0.005,-0.276 -0.20681,-0.48623 -0.50781,-0.49023zM16.01367,50.93555l4.00195,0.00586c0.106,3.299 0.73314,6.50187 1.86914,9.54688l-3.69922,1.52344c-1.34,-3.543 -2.06887,-7.25917 -2.17187,-11.07617zM73.66406,59c-0.19425,0.00295 -0.37978,0.119 -0.45703,0.3125c-0.27,0.67 -0.56867,1.32894 -0.88867,1.96094c-0.125,0.246 -0.0263,0.54687 0.2207,0.67187c0.073,0.036 0.15056,0.05469 0.22656,0.05469c0.181,0 0.35731,-0.10139 0.44531,-0.27539c0.332,-0.656 0.64383,-1.34306 0.92383,-2.03906c0.104,-0.255 -0.02034,-0.54639 -0.27734,-0.65039c-0.06325,-0.02575 -0.12861,-0.03614 -0.19336,-0.03516zM76.76367,60.20117c-0.13,-0.00075 -0.26127,0.02372 -0.38477,0.07422c-0.245,0.101 -0.43997,0.29506 -0.54297,0.53906c-1.424,3.399 -3.47942,6.44374 -6.10742,9.05273c-0.189,0.187 -0.29587,0.44203 -0.29687,0.70703c-0.001,0.266 0.10402,0.52098 0.29102,0.70898l4.22852,4.25781c0.187,0.188 0.44008,0.29392 0.70508,0.29492h0.00391c0.264,0 0.51908,-0.10406 0.70508,-0.28906c3.375,-3.353 6.01566,-7.26867 7.84766,-11.63867c0.103,-0.245 0.10491,-0.51962 0.00391,-0.76562c-0.101,-0.245 -0.29506,-0.43997 -0.53906,-0.54297l-5.5332,-2.32031c-0.1225,-0.0515 -0.25086,-0.07737 -0.38086,-0.07812zM77.2793,62.50391l3.68945,1.54883c-1.57,3.457 -3.6875,6.59642 -6.3125,9.35742l-2.82031,-2.83984c2.254,-2.388 4.08036,-5.09341 5.44336,-8.06641zM71.71875,63.00586c-0.19177,-0.03103 -0.39441,0.05422 -0.50391,0.23047c-1.121,1.793 -2.46981,3.44234 -4.00781,4.90234c-0.202,0.189 -0.20953,0.50508 -0.01953,0.70508c0.097,0.104 0.23128,0.15625 0.36328,0.15625c0.124,0 0.24675,-0.04572 0.34375,-0.13672c1.6,-1.518 3.00197,-3.23266 4.16797,-5.09766c0.147,-0.233 0.07384,-0.54345 -0.16016,-0.68945c-0.05775,-0.03675 -0.11967,-0.05997 -0.18359,-0.07031zM31.51367,67.05078c-0.128,-0.003 -0.25792,0.04222 -0.35742,0.13672c-0.202,0.189 -0.20758,0.50703 -0.01758,0.70703c0.662,0.699 1.37047,1.36828 2.10547,1.98828c0.093,0.079 0.20827,0.11719 0.32227,0.11719c0.142,0 0.28381,-0.06173 0.38281,-0.17773c0.178,-0.211 0.15241,-0.52513 -0.05859,-0.70312c-0.707,-0.598 -1.38934,-1.24011 -2.02734,-1.91211c-0.0945,-0.1015 -0.22161,-0.15325 -0.34961,-0.15625zM29.44531,69.45313c-0.25575,-0.00075 -0.51103,0.09552 -0.70703,0.29102l-4.25391,4.23242c-0.189,0.187 -0.29392,0.44203 -0.29492,0.70703c-0.001,0.266 0.10402,0.51903 0.29102,0.70703c3.357,3.374 7.27648,6.01189 11.64648,7.83789c0.126,0.053 0.25577,0.07617 0.38477,0.07617c0.39,0 0.76183,-0.23128 0.92383,-0.61328l2.31445,-5.53516c0.213,-0.51 -0.02711,-1.09559 -0.53711,-1.30859c-3.401,-1.422 -6.44955,-3.47461 -9.06055,-6.09961c-0.195,-0.1965 -0.45128,-0.29417 -0.70703,-0.29492zM36.58008,71.14453c-0.19153,-0.03089 -0.39366,0.05227 -0.50391,0.22852c-0.147,0.233 -0.07384,0.54345 0.16016,0.68945c1.134,0.71 2.33636,1.33728 3.56836,1.86328c0.064,0.027 0.13031,0.03906 0.19531,0.03906c0.194,0 0.37894,-0.11274 0.46094,-0.30273c0.108,-0.254 -0.00967,-0.54825 -0.26367,-0.65625c-1.185,-0.506 -2.33964,-1.10801 -3.43164,-1.79102c-0.05775,-0.0365 -0.1217,-0.06002 -0.18555,-0.07031zM29.44922,71.85547c2.39,2.251 5.09922,4.0775 8.07422,5.4375l-1.54297,3.69141c-3.458,-1.566 -6.60119,-3.68069 -9.36719,-6.30469zM59.99805,72.96484c-0.06502,0.00012 -0.12961,0.01377 -0.19336,0.04102c-3.104,1.324 -6.40369,1.99414 -9.80469,1.99414l-0.49023,-0.00586c-0.243,-0.005 -0.50477,0.21519 -0.50977,0.49219c-0.005,0.277 0.21423,0.50281 0.49023,0.50781l0.50977,0.00586c3.537,0 6.96731,-0.69722 10.19531,-2.07422c0.254,-0.108 0.37362,-0.40225 0.26563,-0.65625c-0.081,-0.18975 -0.26784,-0.30506 -0.46289,-0.30469zM61.01367,75.83594c-0.13,-0.00013 -0.25981,0.02617 -0.38281,0.07617c-3.373,1.386 -6.95047,2.08789 -10.73047,2.08789c-0.268,0 -0.52589,0.10683 -0.71289,0.29883c-0.187,0.192 -0.29111,0.44975 -0.28711,0.71875l0.09961,6c0.009,0.545 0.454,0.98242 1,0.98242c4.729,0 9.32892,-0.9045 13.66992,-2.6875c0.511,-0.21 0.75492,-0.79369 0.54492,-1.30469l-2.2793,-5.55078c-0.101,-0.245 -0.29506,-0.43997 -0.53906,-0.54297c-0.123,-0.0515 -0.25281,-0.078 -0.38281,-0.07812zM60.45703,78.12695l1.52148,3.70117c-3.519,1.326 -7.21009,2.0512 -10.99609,2.1582l-0.06445,-4c3.285,-0.097 6.48506,-0.72137 9.53906,-1.85937z"></path></g></g></svg>