<svg xmlns="http://www.w3.org/2000/svg" xmlns:xlink="http://www.w3.org/1999/xlink" viewBox="0,0,256,256" width="250px" height="250px"><g fill="#ffffff" fill-rule="nonzero" stroke="none" stroke-width="1" stroke-linecap="butt" stroke-linejoin="miter" stroke-miterlimit="10" stroke-dasharray="" stroke-dashoffset="0" font-family="none" font-weight="none" font-size="none" text-anchor="none" style="mix-blend-mode: normal"><g transform="scale(5.12,5.12)"><path d="M25,2c-12.69071,0 -23,10.3093 -23,23c0,12.6907 10.30929,23 23,23c12.69071,0 23,-10.3093 23,-23c0,-12.6907 -10.30929,-23 -23,-23zM25,4c4.21804,0 7.94876,2.00788 10.32227,5.11133c-1.28417,-0.70708 -2.75702,-1.11133 -4.32227,-1.11133c-4.95872,0 -9,4.04128 -9,9c0,4.95872 4.04128,9 9,9c1.56524,0 3.0381,-0.40425 4.32227,-1.11133c-2.37351,3.10345 -6.10423,5.11133 -10.32227,5.11133c-7.19155,0 -13,-5.80845 -13,-13c0,-7.19155 5.80845,-13 13,-13zM13.41016,7.48828c-2.12921,2.59018 -3.41016,5.904 -3.41016,9.51172c0,8.27242 6.72757,15 15,15c7.96248,0 14.47488,-6.23799 14.95313,-14.08203c0.03081,-0.30199 0.04688,-0.60805 0.04688,-0.91797c0,-0.30992 -0.01606,-0.61598 -0.04687,-0.91797c-0.19807,-3.24872 -1.417,-6.2261 -3.36328,-8.59375c5.67084,3.75761 9.41016,10.18994 9.41016,17.51172c0,11.60983 -9.39017,21 -21,21c-11.60983,0 -21,-9.39017 -21,-21c0,-7.32178 3.73931,-13.75411 9.41016,-17.51172zM31,10c3.63349,0 6.60497,2.7419 6.96484,6.27734c0.01318,0.24048 0.03516,0.47882 0.03516,0.72266c0,0.24383 -0.02197,0.48218 -0.03516,0.72266c-0.35988,3.53545 -3.33136,6.27734 -6.96484,6.27734c-3.87784,0 -7,-3.12216 -7,-7c0,-3.87784 3.12216,-7 7,-7z"></path></g></g></svg>