<svg xmlns="http://www.w3.org/2000/svg" xmlns:xlink="http://www.w3.org/1999/xlink" viewBox="0,0,256,256" width="250px" height="250px"><g fill="#ffffff" fill-rule="nonzero" stroke="none" stroke-width="1" stroke-linecap="butt" stroke-linejoin="miter" stroke-miterlimit="10" stroke-dasharray="" stroke-dashoffset="0" font-family="none" font-weight="none" font-size="none" text-anchor="none" style="mix-blend-mode: normal"><g transform="scale(5.12,5.12)"><path d="M25,48c-0.7,0 -1.405,-0.032 -2.096,-0.094l0.18,-1.992c1.277,0.115 2.603,0.113 3.875,-0.004l0.185,1.991c-0.704,0.065 -1.425,0.099 -2.144,0.099zM18.733,47.135c-1.361,-0.385 -2.693,-0.899 -3.959,-1.529l0.891,-1.791c1.155,0.575 2.371,1.044 3.613,1.395zM31.314,47.123l-0.548,-1.924c1.239,-0.353 2.454,-0.825 3.609,-1.402l0.894,1.789c-1.266,0.632 -2.597,1.149 -3.955,1.537zM11.165,43.375c-1.129,-0.852 -2.185,-1.812 -3.138,-2.854l1.476,-1.35c0.871,0.952 1.835,1.829 2.866,2.607zM38.873,43.348l-1.208,-1.595c1.029,-0.779 1.992,-1.658 2.861,-2.612l1.479,1.347c-0.952,1.044 -2.005,2.006 -3.132,2.86zM5.463,37.143c-0.748,-1.201 -1.388,-2.478 -1.9,-3.793l1.863,-0.726c0.468,1.201 1.051,2.365 1.734,3.461zM44.561,37.104l-1.699,-1.055c0.681,-1.097 1.262,-2.263 1.728,-3.466l1.865,0.722c-0.511,1.318 -1.148,2.596 -1.894,3.799zM2.396,29.271c-0.26,-1.384 -0.393,-2.805 -0.396,-4.223l2,-0.004c0.002,1.296 0.124,2.594 0.361,3.857zM47.613,29.223l-1.967,-0.365c0.235,-1.263 0.354,-2.561 0.354,-3.858l2,-0.092v0.092c0,1.419 -0.13,2.84 -0.387,4.223zM4.345,21.186l-1.967,-0.361c0.255,-1.39 0.642,-2.764 1.149,-4.084l1.867,0.718c-0.463,1.204 -0.816,2.458 -1.049,3.727zM45.63,21.055c-0.241,-1.267 -0.602,-2.519 -1.073,-3.72l1.862,-0.729c0.516,1.316 0.912,2.688 1.175,4.077zM7.115,13.989l-1.702,-1.05c0.742,-1.202 1.6,-2.343 2.55,-3.39l1.481,1.344c-0.868,0.956 -1.652,1.998 -2.329,3.096zM42.816,13.877c-0.685,-1.094 -1.475,-2.13 -2.349,-3.081l1.473,-1.354c0.957,1.041 1.822,2.176 2.571,3.373zM12.3,8.274l-1.211,-1.592c1.126,-0.857 2.337,-1.612 3.599,-2.247l0.898,1.787c-1.152,0.579 -2.257,1.27 -3.286,2.052zM37.596,8.195c-1.035,-0.776 -2.145,-1.459 -3.3,-2.031l0.887,-1.793c1.265,0.626 2.48,1.374 3.613,2.224zM19.191,4.813l-0.551,-1.922c1.356,-0.389 2.759,-0.654 4.168,-0.787l0.188,1.991c-1.287,0.121 -2.567,0.363 -3.805,0.718zM30.681,4.777c-1.239,-0.347 -2.521,-0.581 -3.809,-0.695l0.176,-1.992c1.411,0.125 2.815,0.381 4.173,0.761zM25,30c-2.757,0 -5,-2.243 -5,-5c0,-2.757 2.243,-5 5,-5c2.757,0 5,2.243 5,5c0,2.757 -2.243,5 -5,5zM25,22c-1.654,0 -3,1.346 -3,3c0,1.654 1.346,3 3,3c1.654,0 3,-1.346 3,-3c0,-1.654 -1.346,-3 -3,-3z"></path></g></g></svg>