<svg xmlns="http://www.w3.org/2000/svg" xmlns:xlink="http://www.w3.org/1999/xlink" viewBox="0,0,256,256" width="256px" height="256px"><g fill="#ffffff" fill-rule="nonzero" stroke="none" stroke-width="1" stroke-linecap="butt" stroke-linejoin="miter" stroke-miterlimit="10" stroke-dasharray="" stroke-dashoffset="0" font-family="none" font-weight="none" font-size="none" text-anchor="none" style="mix-blend-mode: normal"><g transform="scale(4,4)"><path d="M32.00586,3c-15.991,0 -29,13.01 -29,29c0,15.99 13.009,29 29,29c15.991,0 29,-13.01 29,-29c0,-15.99 -13.009,-29 -29,-29zM32.00586,5c14.888,0 27,12.112 27,27c0,14.888 -12.112,27 -27,27c-14.888,0 -27,-12.112 -27,-27c0,-14.888 12.112,-27 27,-27zM32.78125,8.14453c-0.537,0 -0.981,0.4268 -1,0.9668c-0.019,0.552 0.41284,1.0142 0.96484,1.0332c8.143,0.28 15.43439,5.01537 19.02539,12.35938c0.173,0.355 0.52844,0.56055 0.89844,0.56055c0.147,0 0.29645,-0.03061 0.43945,-0.09961c0.496,-0.242 0.70198,-0.84189 0.45898,-1.33789c-3.917,-8.009 -11.86795,-13.17547 -20.75195,-13.48047c-0.012,-0.001 -0.02316,-0.00195 -0.03516,-0.00195zM32.00586,14c-9.925,0 -18,8.075 -18,18c0,9.925 8.075,18 18,18c9.926,0 18,-8.075 18,-18c0,-9.925 -8.075,-18 -18,-18zM32.00586,16c8.823,0 16,7.178 16,16c0,8.822 -7.178,16 -16,16c-8.822,0 -16,-7.178 -16,-16c0,-8.822 7.178,-16 16,-16zM54.45508,27.08008c-0.544,0.098 -0.90364,0.61811 -0.80664,1.16211c0.273,1.522 0.38308,3.08453 0.33008,4.64453c-0.019,0.552 0.41284,1.0142 0.96484,1.0332c0.012,0.001 0.02416,0 0.03516,0c0.537,0 0.981,-0.4268 1,-0.9668c0.058,-1.7 -0.06333,-3.40345 -0.36133,-5.06445c-0.099,-0.544 -0.62211,-0.91059 -1.16211,-0.80859zM10.16797,34.63086l-1.97461,0.32813c-0.545,0.09 -0.91327,0.60539 -0.82227,1.15039c0.081,0.489 0.50633,0.83594 0.98633,0.83594c0.054,0 0.10806,-0.00367 0.16406,-0.01367l1.97266,-0.32812c0.545,-0.09 0.91326,-0.60539 0.82226,-1.15039c-0.09,-0.545 -0.59944,-0.92027 -1.14844,-0.82227zM11.55469,38.98633c-0.12986,-0.00333 -0.26187,0.01881 -0.39063,0.07031l-1.86133,0.72852c-0.514,0.201 -0.76741,0.78092 -0.56641,1.29492c0.155,0.395 0.53164,0.63672 0.93164,0.63672c0.122,0 0.24428,-0.02231 0.36328,-0.07031l1.86328,-0.72852c0.514,-0.201 0.76741,-0.78092 0.56641,-1.29492c-0.1515,-0.38475 -0.51667,-0.62673 -0.90625,-0.63672zM13.42383,43.03516c-0.12783,0.02347 -0.25169,0.07219 -0.36719,0.14844l-1.67383,1.0957c-0.462,0.303 -0.59011,0.92276 -0.28711,1.38477c0.191,0.293 0.50994,0.45117 0.83594,0.45117c0.188,0 0.37883,-0.05306 0.54883,-0.16406l1.67188,-1.0957c0.462,-0.303 0.59206,-0.92277 0.28906,-1.38477c-0.22725,-0.34725 -0.63409,-0.50595 -1.01758,-0.43555zM16.45703,46.54883c-0.25575,0 -0.51153,0.09747 -0.70703,0.29297l-1.41406,1.41406c-0.391,0.391 -0.391,1.02306 0,1.41406c0.195,0.195 0.45103,0.29297 0.70703,0.29297c0.256,0 0.51203,-0.09797 0.70703,-0.29297l1.41406,-1.41406c0.391,-0.391 0.391,-1.02306 0,-1.41406c-0.1955,-0.1955 -0.45128,-0.29297 -0.70703,-0.29297zM20.16406,49.41797c-0.38306,-0.0698 -0.78837,0.0898 -1.01562,0.43555l-1.0957,1.67383c-0.302,0.462 -0.17294,1.08081 0.28906,1.38281c0.169,0.111 0.35888,0.16406 0.54688,0.16406c0.325,0 0.64589,-0.15817 0.83789,-0.45117l1.0957,-1.67383c0.302,-0.462 0.17294,-1.08081 -0.28906,-1.38281c-0.11525,-0.076 -0.24145,-0.12517 -0.36914,-0.14844zM23.99219,51.47656c-0.38995,0.01045 -0.75355,0.24927 -0.9043,0.63477l-0.72852,1.86328c-0.202,0.514 0.05241,1.09292 0.56641,1.29492c0.12,0.047 0.24228,0.06836 0.36328,0.06836c0.4,0 0.77664,-0.24077 0.93164,-0.63477l0.72852,-1.86133c0.202,-0.514 -0.05045,-1.09488 -0.56445,-1.29687c-0.129,-0.05075 -0.26259,-0.07184 -0.39258,-0.06836zM28.55273,52.68945c-0.549,-0.098 -1.06039,0.27727 -1.15039,0.82227l-0.32812,1.97266c-0.091,0.545 0.27726,1.05939 0.82227,1.15039c0.056,0.01 0.11202,0.01367 0.16602,0.01367c0.48,0 0.90338,-0.34594 0.98438,-0.83594l0.32813,-1.97266c0.091,-0.545 -0.27727,-1.05939 -0.82227,-1.15039z"></path></g></g></svg>