<svg xmlns="http://www.w3.org/2000/svg" xmlns:xlink="http://www.w3.org/1999/xlink" viewBox="0,0,256,256" width="250px" height="250px"><g fill="#ffffff" fill-rule="nonzero" stroke="none" stroke-width="1" stroke-linecap="butt" stroke-linejoin="miter" stroke-miterlimit="10" stroke-dasharray="" stroke-dashoffset="0" font-family="none" font-weight="none" font-size="none" text-anchor="none" style="mix-blend-mode: normal"><g transform="scale(5.12,5.12)"><path d="M0,0v20h12.3125c-0.19531,1.42578 -0.3125,2.77344 -0.3125,3.5c0,0.94531 0.17969,2.82813 0.5,4.71875c0.16016,0.94531 0.35547,1.85156 0.59375,2.65625c0.23438,0.79297 0.45703,1.44531 1,2c0.54688,0.58594 1.18359,0.79297 1.96875,1.03125c0.79297,0.23828 1.71094,0.43359 2.65625,0.59375c1.89063,0.32031 3.79297,0.5 4.78125,0.5c0.15625,0 0.40625,0.00391 0.65625,0c-0.10156,0.66016 -0.15625,1.31641 -0.15625,2c0,3.5625 1.39844,6.83594 3.78125,9.21875c2.38281,2.38281 5.65625,3.78125 9.21875,3.78125c3.5625,0 6.83594,-1.39844 9.21875,-3.78125c2.38281,-2.38281 3.78125,-5.65625 3.78125,-9.21875c0,-3.5625 -1.39844,-6.83594 -3.78125,-9.21875c-2.38281,-2.38281 -5.65625,-3.78125 -9.21875,-3.78125c-0.68359,0 -1.33984,0.05469 -2,0.15625c0.00391,-0.25 0,-0.5 0,-0.65625c0,-0.94531 -0.17969,-2.82812 -0.5,-4.71875c-0.16016,-0.94531 -0.35547,-1.85156 -0.59375,-2.65625c-0.23437,-0.78906 -0.43359,-1.44922 -0.96875,-2c-0.00781,-0.00781 -0.02344,0.00781 -0.03125,0c-0.55078,-0.59375 -1.17578,-0.79297 -1.96875,-1.03125c-0.80078,-0.23828 -1.73828,-0.43359 -2.6875,-0.59375c-1.90234,-0.32031 -3.80469,-0.5 -4.75,-0.5c-0.75,0 -2.07812,0.13281 -3.5,0.34375v-12.34375zM2,2h16v10.6875c-0.66016,0.13281 -1.30469,0.27344 -1.875,0.4375c-0.79687,0.23047 -1.4375,0.42969 -2,0.9375c-0.60937,0.55469 -0.79297,1.19922 -1.03125,2c-0.17578,0.58594 -0.30469,1.25391 -0.4375,1.9375h-10.65625zM23.5,14c0.65234,0 2.60938,0.16406 4.40625,0.46875c0.89844,0.15234 1.76563,0.32813 2.4375,0.53125c0.67188,0.20313 1.17969,0.52734 1.125,0.46875v0.03125h0.03125c-0.00781,-0.00781 0.29688,0.50781 0.5,1.1875c0.20313,0.67969 0.37891,1.54297 0.53125,2.4375c0.30469,1.78516 0.46875,3.72266 0.46875,4.375c0,0.26953 -0.00391,0.68359 -0.03125,1.125c-1.96484,0.62891 -3.74219,1.71094 -5.1875,3.15625c-1.44531,1.44531 -2.52734,3.22266 -3.15625,5.1875c-0.44141,0.02734 -0.85547,0.03125 -1.125,0.03125c-0.71094,0 -2.65234,-0.16406 -4.4375,-0.46875c-0.89062,-0.15234 -1.77344,-0.33203 -2.4375,-0.53125c-0.66406,-0.19922 -1.14453,-0.52344 -1.09375,-0.46875v-0.03125h-0.03125c0.00781,0.00781 -0.29687,-0.50781 -0.5,-1.1875c-0.20312,-0.67969 -0.37891,-1.54297 -0.53125,-2.4375c-0.30469,-1.78516 -0.46875,-3.72266 -0.46875,-4.375c0,-0.65234 0.16406,-2.60937 0.46875,-4.40625c0.15234,-0.89844 0.32813,-1.76562 0.53125,-2.4375c0.20313,-0.67187 0.52734,-1.17969 0.46875,-1.125c-0.01172,0.00781 0.53125,-0.26953 1.21875,-0.46875c0.6875,-0.19922 1.54297,-0.40234 2.4375,-0.5625c1.78906,-0.31641 3.74219,-0.5 4.375,-0.5zM37,26c3.03906,0 5.76172,1.19922 7.78125,3.21875c2.01953,2.01953 3.21875,4.74219 3.21875,7.78125c0,3.03906 -1.19922,5.76172 -3.21875,7.78125c-2.01953,2.01953 -4.74219,3.21875 -7.78125,3.21875c-3.03906,0 -5.76172,-1.19922 -7.78125,-3.21875c-2.01953,-2.01953 -3.21875,-4.74219 -3.21875,-7.78125c0,-0.95312 0.11719,-1.87109 0.34375,-2.75c0.02734,-0.05859 0.04688,-0.125 0.0625,-0.1875c0.50781,-1.84375 1.47266,-3.50391 2.8125,-4.84375c1.34375,-1.34375 3.01953,-2.30859 4.875,-2.8125c0.04297,-0.01172 0.08203,-0.01953 0.125,-0.03125c0.03125,-0.00781 0.0625,-0.01953 0.09375,-0.03125c0.86328,-0.21484 1.75391,-0.34375 2.6875,-0.34375z"></path></g></g></svg>