<svg width="1416" height="225" viewBox="0 0 1416 225" fill="none" xmlns="http://www.w3.org/2000/svg">
<path d="M1244.7 10.764C1243.78 8.74002 1243.69 7.17602 1244.43 6.07202C1245.35 4.78402 1246.91 4.14001 1249.12 4.14001H1298.8C1302.11 4.14001 1304.41 5.61202 1305.7 8.55602L1360.07 120.06V9.38401C1360.07 5.88801 1361.91 4.14001 1365.59 4.14001H1409.48C1413.34 4.14001 1415.27 5.88801 1415.27 9.38401V216.936C1415.27 217.672 1415.09 218.224 1414.72 218.592C1413.98 220.248 1412.42 221.076 1410.03 221.076H1363.11C1359.8 221.076 1357.5 219.604 1356.21 216.66L1244.7 10.764ZM1244.15 41.952C1244.15 39.928 1245.16 38.732 1247.19 38.364C1249.21 37.996 1250.68 38.824 1251.6 40.848L1296.87 124.476C1297.79 126.316 1298.43 128.064 1298.8 129.72C1299.17 131.192 1299.35 132.848 1299.35 134.688V215.556C1299.35 219.052 1297.51 220.8 1293.83 220.8H1249.95C1246.08 220.8 1244.15 219.052 1244.15 215.556V41.952Z" fill="#F4F4F4"/>
<path d="M1090.1 216.384C1088.99 219.328 1086.69 220.8 1083.2 220.8H1035.73C1033.52 220.8 1031.95 220.156 1031.03 218.868C1030.3 217.764 1030.39 216.2 1031.31 214.176L1096.45 8.55602C1097.55 5.61202 1099.76 4.14001 1103.07 4.14001H1141.99C1146.22 4.14001 1147.78 6.34801 1146.68 10.764L1090.1 216.384ZM1170.14 220.8C1166.64 220.8 1164.53 219.328 1163.79 216.384L1156.89 189.612H1112.73C1110.52 189.612 1108.96 189.06 1108.04 187.956C1107.12 186.668 1107.03 185.012 1107.76 182.988L1117.97 145.728C1119.08 142.232 1121.19 140.484 1124.32 140.484H1144.19L1133.15 97.704C1132.42 95.496 1132.51 92.92 1133.43 89.976L1153.3 17.94C1154.04 15.364 1155.23 14.076 1156.89 14.076C1158.55 14.076 1159.83 15.364 1160.75 17.94L1223.68 214.452C1225.52 218.684 1224.14 220.8 1219.54 220.8H1170.14Z" fill="#F4F4F4"/>
<path d="M904.351 139.104L952.375 8.83202C952.927 7.17602 953.571 5.98002 954.307 5.24402C955.043 4.50802 956.423 4.14001 958.447 4.14001H1005.37C1009.23 4.14001 1011.16 5.88801 1011.16 9.38401V215.004C1011.16 218.868 1009.32 220.8 1005.64 220.8H963.967C960.287 220.8 958.447 218.868 958.447 215.004V122.82L928.087 202.308C927.535 203.964 926.891 205.16 926.155 205.896C925.419 206.632 924.039 207 922.015 207H886.687C884.663 207 883.283 206.632 882.547 205.896C881.995 204.976 881.351 203.78 880.615 202.308L798.091 11.592C797.171 9.56802 797.079 7.82002 797.815 6.34802C798.735 4.87602 800.299 4.14001 802.507 4.14001H849.427C852.739 4.14001 855.039 5.61202 856.327 8.55602L904.351 139.104ZM797.539 49.956C797.539 47.932 798.551 46.736 800.575 46.368C802.599 46 804.071 46.828 804.991 48.852L847.771 147.936C848.691 149.96 849.335 151.708 849.703 153.18C850.071 154.652 850.255 156.308 850.255 158.148V215.556C850.255 219.052 848.415 220.8 844.735 220.8H803.335C799.471 220.8 797.539 219.052 797.539 215.556V49.956Z" fill="#F4F4F4"/>
<path d="M693.716 140.484C689.852 140.484 687.92 138.644 687.92 134.964V107.916C687.92 104.236 689.852 102.396 693.716 102.396H767.133C770.629 102.396 772.376 104.236 772.376 107.916V146.28C772.376 161.368 770.261 173.972 766.029 184.092C761.797 194.212 755.817 202.308 748.089 208.38C740.544 214.452 731.529 218.684 721.041 221.076C710.553 223.652 699.144 224.94 686.816 224.94C674.12 224.94 662.528 223.652 652.04 221.076C641.552 218.5 632.444 214.084 624.716 207.828C617.172 201.572 611.284 193.292 607.052 182.988C603.004 172.5 600.98 159.436 600.98 143.796V81.42C600.98 65.78 603.004 52.716 607.052 42.228C611.284 31.74 617.172 23.368 624.716 17.112C632.444 10.856 641.552 6.44 652.04 3.864C662.528 1.288 674.12 0 686.816 0C699.512 0 711.104 1.38 721.592 4.14C732.08 6.716 741.097 10.948 748.641 16.836C756.185 22.54 761.981 30.084 766.029 39.468C770.261 48.668 772.376 59.8 772.376 72.864V73.416C772.192 77.096 770.353 78.936 766.857 78.936H721.868C718.004 78.936 716.073 77.004 716.073 73.14V70.932C716.073 67.62 715.521 64.492 714.417 61.548C713.496 58.604 711.84 56.028 709.448 53.82C707.24 51.612 704.297 49.864 700.617 48.576C696.937 47.104 692.336 46.368 686.816 46.368C675.96 46.368 668.233 49.036 663.633 54.372C659.217 59.524 657.008 67.804 657.008 79.212V145.728C657.008 157.136 659.217 165.508 663.633 170.844C668.233 175.996 675.96 178.572 686.816 178.572C697.672 178.572 705.216 175.996 709.448 170.844C713.864 165.508 716.073 157.136 716.073 145.728V140.484H693.716Z" fill="#F4F4F4"/>
<path d="M405.653 10.764C404.733 8.74002 404.641 7.17602 405.377 6.07202C406.297 4.78402 407.861 4.14001 410.069 4.14001H459.749C463.061 4.14001 465.361 5.61202 466.649 8.55602L521.021 120.06V9.38401C521.021 5.88801 522.861 4.14001 526.541 4.14001H570.425C574.289 4.14001 576.221 5.88801 576.221 9.38401V216.936C576.221 217.672 576.037 218.224 575.669 218.592C574.933 220.248 573.369 221.076 570.977 221.076H524.057C520.745 221.076 518.445 219.604 517.157 216.66L405.653 10.764ZM405.101 41.952C405.101 39.928 406.113 38.732 408.137 38.364C410.161 37.996 411.633 38.824 412.553 40.848L457.817 124.476C458.737 126.316 459.381 128.064 459.749 129.72C460.117 131.192 460.301 132.848 460.301 134.688V215.556C460.301 219.052 458.461 220.8 454.781 220.8H410.897C407.033 220.8 405.101 219.052 405.101 215.556V41.952Z" fill="#F4F4F4"/>
<path d="M251.047 216.384C249.943 219.328 247.643 220.8 244.147 220.8H196.675C194.467 220.8 192.903 220.156 191.983 218.868C191.247 217.764 191.339 216.2 192.259 214.176L257.395 8.55602C258.499 5.61202 260.707 4.14001 264.019 4.14001H302.935C307.167 4.14001 308.731 6.34801 307.627 10.764L251.047 216.384ZM331.087 220.8C327.591 220.8 325.475 219.328 324.739 216.384L317.839 189.612H273.679C271.471 189.612 269.907 189.06 268.987 187.956C268.067 186.668 267.975 185.012 268.711 182.988L278.923 145.728C280.027 142.232 282.143 140.484 285.271 140.484H305.143L294.103 97.704C293.367 95.496 293.459 92.92 294.379 89.976L314.251 17.94C314.987 15.364 316.183 14.076 317.839 14.076C319.495 14.076 320.783 15.364 321.703 17.94L384.631 214.452C386.471 218.684 385.091 220.8 380.491 220.8H331.087Z" fill="#F4F4F4"/>
<path d="M1.62604 10.764C0.706042 8.74002 0.614041 7.17602 1.35004 6.07202C2.27004 4.78402 3.83404 4.14001 6.04204 4.14001H55.722C59.0341 4.14001 61.3341 5.61202 62.6221 8.55602L116.994 120.06V9.38401C116.994 5.88801 118.834 4.14001 122.514 4.14001H166.398C170.262 4.14001 172.194 5.88801 172.194 9.38401V216.936C172.194 217.672 172.01 218.224 171.642 218.592C170.906 220.248 169.342 221.076 166.95 221.076H120.03C116.718 221.076 114.418 219.604 113.13 216.66L1.62604 10.764ZM1.07404 41.952C1.07404 39.928 2.08604 38.732 4.11004 38.364C6.13404 37.996 7.60604 38.824 8.52604 40.848L53.7901 124.476C54.71 126.316 55.354 128.064 55.722 129.72C56.0901 131.192 56.274 132.848 56.274 134.688V215.556C56.274 219.052 54.434 220.8 50.754 220.8H6.87004C3.00604 220.8 1.07404 219.052 1.07404 215.556V41.952Z" fill="#F4F4F4"/>
</svg>
